<?xml version="1.0" standalone="no"?>
<!DOCTYPE svg PUBLIC "-//W3C//DTD SVG 20010904//EN"
 "http://www.w3.org/TR/2001/REC-SVG-20010904/DTD/svg10.dtd">
<svg version="1.0" xmlns="http://www.w3.org/2000/svg"
 width="723.000000pt" height="723.000000pt" viewBox="0 0 723.000000 723.000000"
 preserveAspectRatio="xMidYMid meet">
<metadata>
Created by potrace 1.11, written by Peter Selinger 2001-2013
</metadata>
<g transform="translate(0.000000,723.000000) scale(0.100000,-0.100000)"
fill="#000000" stroke="none">
<path d="M5516 6904 c-28 -24 -99 -91 -159 -147 -61 -56 -122 -113 -136 -126
-14 -13 -78 -72 -141 -131 -63 -60 -129 -121 -146 -137 -42 -39 -238 -220
-284 -263 -21 -19 -84 -78 -141 -131 -57 -53 -120 -112 -140 -130 -20 -19 -85
-80 -145 -135 -60 -56 -123 -115 -139 -130 l-31 -29 1 -1929 0 -1928 54 -57
c374 -394 1314 -1341 1331 -1341 9 0 76 61 480 437 30 28 66 61 80 73 14 12
75 68 135 124 61 57 122 114 137 127 14 14 68 63 118 109 50 46 104 95 118
108 15 14 54 50 87 81 70 64 256 236 300 277 17 15 75 69 130 119 55 51 118
109 140 129 l40 37 -70 65 c-39 36 -88 81 -110 101 -22 19 -67 60 -101 91 -57
54 -255 238 -314 292 -15 14 -74 68 -130 120 -124 114 -153 140 -160 140 -3 0
-13 -8 -21 -17 -13 -15 -163 -156 -273 -257 -17 -15 -84 -78 -150 -140 -67
-62 -134 -125 -151 -140 -16 -15 -81 -76 -144 -134 -63 -59 -121 -112 -131
-119 -18 -12 -26 -6 -152 114 l-57 54 -1 692 c-1 381 -2 1170 -3 1755 -1 584
1 1061 4 1060 6 -3 124 -109 198 -178 21 -19 80 -73 131 -120 85 -77 154 -140
230 -210 76 -70 215 -197 234 -213 12 -10 66 -60 121 -111 142 -132 173 -158
184 -154 7 3 68 58 261 238 21 19 87 80 146 135 60 55 138 127 174 161 36 33
89 82 119 110 29 27 86 79 125 116 70 67 70 67 50 85 -22 18 -175 159 -244
223 -20 19 -79 73 -130 120 -112 102 -120 110 -250 230 -120 111 -97 89 -235
215 -61 55 -112 102 -115 106 -3 3 -59 54 -125 115 -66 60 -129 118 -141 129
-11 11 -45 42 -75 69 -30 27 -99 91 -154 141 -149 137 -169 155 -175 155 -3 0
-27 -21 -54 -46z"/>
<path d="M721 6730 c-104 -102 -301 -295 -437 -428 l-248 -244 222 -220 222
-219 5 -1973 6 -1973 -112 -104 c-61 -57 -122 -113 -134 -124 -12 -11 -64 -58
-115 -105 -51 -47 -97 -86 -101 -88 -17 -7 -8 -22 44 -73 28 -28 176 -171 327
-319 451 -439 504 -490 510 -491 3 -1 335 -2 738 -3 477 -1 739 2 752 9 10 5
71 60 136 120 64 61 133 125 153 144 20 18 85 79 145 135 61 55 124 115 141
131 81 76 268 250 286 266 11 9 79 73 151 141 73 67 162 151 198 185 l67 63 2
822 c1 453 3 1385 5 2071 l2 1248 -26 27 c-15 15 -98 95 -185 177 -87 83 -202
191 -254 241 -53 50 -109 103 -124 117 -15 14 -98 92 -185 175 -86 82 -173
164 -192 182 -19 18 -97 92 -173 164 l-138 131 -750 0 -749 0 -189 -185z
m1024 -995 c22 -22 272 -256 345 -325 25 -23 106 -100 180 -170 74 -70 154
-145 177 -167 l42 -39 4 -1413 4 -1412 -120 -112 c-66 -62 -137 -128 -157
-147 -36 -34 -245 -230 -365 -341 -131 -123 -170 -158 -173 -155 -1 2 -5 513
-7 1137 -3 624 -7 1604 -10 2178 l-5 1044 32 -29 c18 -16 42 -38 53 -49z"/>
</g>
</svg>
